<?xml version="1.0" standalone="no"?>
<!DOCTYPE svg PUBLIC "-//W3C//DTD SVG 20010904//EN"
 "http://www.w3.org/TR/2001/REC-SVG-20010904/DTD/svg10.dtd">
<svg version="1.0" xmlns="http://www.w3.org/2000/svg"
 width="512.000000pt" height="295.000000pt" viewBox="0 0 512.000000 295.000000"
 preserveAspectRatio="xMidYMid meet">

<g transform="translate(0.000000,295.000000) scale(0.100000,-0.100000)"
fill="#000000" stroke="none">
<path d="M3820 2882 c-14 -4 -32 -20 -40 -35 -14 -26 -13 -34 23 -135 21 -59
41 -115 44 -124 5 -16 -3 -18 -74 -18 -121 0 -163 -21 -163 -83 0 -13 10 -33
23 -45 20 -19 36 -22 151 -24 l129 -3 16 -42 c14 -39 13 -46 -2 -77 -24 -51
-58 -58 -292 -54 l-200 3 -6 56 c-13 125 -106 253 -222 304 -83 38 -181 48
-407 42 -305 -9 -392 -40 -620 -222 l-133 -105 -164 0 c-169 0 -233 9 -268 38
-11 9 -66 73 -122 142 -174 214 -195 222 -578 227 -301 4 -316 2 -343 -47 -10
-18 -11 -32 -4 -50 6 -16 255 -212 708 -559 385 -294 705 -539 713 -546 11
-11 -4 -33 -89 -129 l-103 -116 -31 19 c-165 98 -236 131 -284 131 -70 0 -107
-29 -163 -126 -68 -119 -76 -145 -59 -197 8 -25 14 -84 14 -147 0 -96 -2 -110
-29 -164 -80 -163 -266 -260 -436 -228 -151 28 -275 136 -319 278 -74 240 74
478 325 525 63 12 154 1 219 -26 49 -21 89 -19 111 5 26 28 24 79 -4 101 -68
55 -248 84 -373 60 -257 -50 -442 -279 -442 -546 1 -154 48 -269 159 -381 112
-114 231 -164 391 -164 279 0 495 184 548 467 l11 61 81 -45 82 -46 -14 -61
c-48 -210 -226 -417 -430 -500 -274 -111 -578 -50 -789 159 -135 133 -204 290
-212 480 -6 136 12 229 66 340 76 159 187 273 336 345 115 56 190 73 320 74
134 0 206 -17 330 -79 50 -25 100 -45 112 -45 56 0 88 76 49 119 -27 30 -141
86 -236 116 -105 33 -278 44 -397 25 -169 -27 -325 -105 -450 -224 -128 -121
-210 -257 -255 -424 -30 -110 -29 -315 1 -427 98 -364 394 -617 766 -655 155
-16 313 13 460 84 227 109 391 302 460 539 l17 57 90 -47 c67 -35 111 -68 167
-124 117 -117 70 -110 762 -107 l584 3 40 23 c22 12 50 29 61 37 21 15 23 14
49 -32 285 -494 972 -585 1374 -182 282 281 338 705 140 1056 -86 153 -270
311 -436 374 -35 13 -63 26 -63 29 0 3 14 13 30 22 40 23 88 100 96 157 4 26
2 64 -5 89 -11 44 -410 682 -460 736 -44 49 -102 68 -215 72 -56 2 -112 0
-126 -4z m222 -162 c14 -11 118 -165 232 -344 153 -240 206 -332 206 -354 0
-61 -25 -74 -295 -156 -346 -106 -438 -155 -559 -296 -104 -121 -136 -215
-187 -540 -21 -140 -42 -264 -45 -275 -12 -39 -48 -78 -88 -96 -38 -17 -76
-19 -573 -19 -352 0 -541 4 -560 11 -15 5 -41 22 -56 37 -33 31 -101 158 -94
176 3 6 62 51 131 100 l126 88 48 -50 c74 -78 119 -97 232 -97 79 0 102 4 137
23 63 33 106 74 139 134 26 48 29 62 29 148 0 74 -4 103 -19 130 -16 29 -108
158 -213 296 l-23 31 79 56 80 57 388 0 c437 0 433 -1 433 67 0 20 -7 45 -17
55 -15 17 -42 18 -434 18 l-419 0 -95 -65 c-53 -36 -99 -65 -103 -65 -8 1
-105 130 -100 134 1 2 44 33 94 69 158 113 72 101 784 107 691 6 650 1 717 72
85 88 84 159 -2 388 -36 95 -65 174 -65 176 0 13 72 1 92 -16z m-2800 -173
c31 -18 75 -63 129 -130 114 -142 147 -175 204 -205 48 -26 57 -27 259 -32
l210 -5 242 -320 c134 -176 243 -323 243 -326 1 -3 -21 -11 -48 -18 -28 -7
-70 -26 -95 -42 l-44 -30 -729 557 c-400 306 -735 563 -743 571 -13 13 7 14
155 11 165 -3 171 -4 217 -31z m1881 -63 c68 -23 133 -91 153 -160 9 -30 13
-62 10 -70 -4 -12 -53 -14 -309 -14 -241 0 -314 -3 -354 -15 -48 -14 -84 -37
-233 -143 l-59 -42 -75 99 -76 100 108 86 c192 154 255 173 573 174 173 1 225
-2 262 -15z m1300 -810 c259 -66 465 -277 528 -542 41 -168 12 -372 -71 -517
-207 -357 -653 -479 -1005 -273 -40 24 -105 76 -151 123 -64 64 -90 100 -127
174 -26 51 -47 106 -47 123 0 63 73 494 92 547 27 74 99 182 151 227 49 42
126 89 133 81 3 -3 18 -39 33 -81 l29 -75 -42 -25 c-68 -40 -165 -151 -201
-231 -76 -165 -74 -314 5 -480 91 -191 277 -305 494 -305 56 0 114 6 147 16
217 65 369 241 401 464 29 203 -81 433 -255 538 -68 41 -108 38 -133 -10 -21
-41 -6 -75 51 -111 67 -43 140 -129 166 -195 93 -244 -53 -506 -311 -554 -169
-32 -355 65 -435 228 -27 54 -30 68 -30 169 0 103 2 114 32 177 30 64 97 144
141 167 19 10 22 5 50 -72 l30 -82 -23 -25 c-82 -87 -85 -220 -6 -311 46 -54
100 -79 175 -79 109 0 191 62 222 168 39 131 -49 266 -187 290 l-44 8 -84 232
c-46 128 -82 234 -79 237 2 2 29 9 59 14 70 13 214 5 292 -15z m-2223 -311
c56 -43 61 -50 56 -76 -3 -16 -6 -40 -6 -53 0 -18 -17 -36 -72 -74 l-71 -50
-76 41 c-42 23 -81 46 -88 51 -9 7 13 38 80 114 51 57 97 102 104 100 6 -3 39
-26 73 -53z m441 -9 c36 -18 66 -58 81 -105 23 -79 -33 -174 -120 -200 -116
-34 -238 86 -203 201 32 107 145 155 242 104z m-873 -224 l203 -112 -40 -34
c-22 -19 -46 -50 -53 -70 -8 -22 -17 -33 -26 -29 -14 5 -444 245 -452 252 -4
4 54 116 73 141 8 10 19 7 51 -11 22 -13 132 -75 244 -137z m2540 -106 c31
-36 29 -79 -7 -115 -40 -40 -93 -36 -128 10 -21 27 -16 85 10 108 43 40 87 39
125 -3z"/>
<path d="M771 1174 c-100 -50 -148 -159 -118 -265 32 -107 113 -169 223 -169
75 0 129 25 175 79 63 72 75 161 35 247 -56 121 -194 168 -315 108z m167 -146
c25 -24 30 -82 9 -109 -35 -46 -88 -50 -128 -10 -83 84 32 199 119 119z"/>
</g>
</svg>
