<?xml version="1.0" standalone="no"?>
<!DOCTYPE svg PUBLIC "-//W3C//DTD SVG 20010904//EN"
 "http://www.w3.org/TR/2001/REC-SVG-20010904/DTD/svg10.dtd">
<svg version="1.0" xmlns="http://www.w3.org/2000/svg"
 width="512.000000pt" height="198.000000pt" viewBox="0 0 512.000000 198.000000"
 preserveAspectRatio="xMidYMid meet">

<g transform="translate(0.000000,198.000000) scale(0.100000,-0.100000)"
fill="#000000" stroke="none">
<path d="M1545 1920 c-136 -29 -186 -49 -495 -200 -184 -90 -317 -149 -375
-165 -49 -14 -180 -37 -290 -51 -234 -30 -286 -48 -334 -115 -49 -67 -53 -95
-49 -408 3 -322 6 -334 84 -421 49 -55 102 -80 259 -124 72 -21 154 -44 183
-52 51 -15 54 -18 85 -82 46 -94 126 -173 223 -219 71 -34 89 -38 175 -41 108
-5 183 11 259 56 55 32 133 104 161 148 l21 34 1148 0 1148 0 21 -34 c28 -44
106 -116 161 -148 76 -45 151 -61 259 -56 86 3 104 7 171 40 91 43 146 89 194
163 72 108 98 231 72 351 -27 131 -95 235 -198 304 -190 127 -438 102 -599
-59 -93 -94 -141 -215 -138 -346 l2 -70 -1093 0 -1093 0 2 70 c3 131 -45 252
-138 346 -162 162 -409 186 -601 58 -100 -67 -184 -199 -197 -309 -3 -28 -10
-53 -14 -56 -5 -3 -80 16 -166 41 -230 67 -243 83 -243 290 l0 135 59 0 c52 0
62 3 80 26 26 34 26 54 0 88 -18 23 -28 26 -80 26 l-59 0 0 69 c0 54 4 74 20
94 23 29 14 27 277 62 200 26 296 51 441 112 l82 36 99 -96 c150 -145 227
-177 432 -177 119 0 130 2 149 22 26 28 26 72 0 98 -17 17 -33 20 -119 20 -55
0 -106 2 -114 5 -12 5 -7 37 27 188 l42 181 41 12 c83 24 231 35 433 32 l205
-3 0 -205 0 -205 -140 -3 c-112 -2 -143 -6 -157 -19 -24 -22 -23 -78 1 -102
19 -19 47 -20 1033 -24 873 -3 1033 -6 1156 -21 279 -33 481 -75 658 -137 95
-33 174 -74 174 -89 0 -6 -27 -10 -59 -10 -52 0 -62 -3 -80 -26 -12 -15 -21
-34 -21 -44 0 -10 9 -29 21 -44 20 -25 24 -26 120 -26 l99 0 0 -170 c0 -133
-3 -177 -15 -200 -17 -34 -43 -50 -79 -50 -27 0 -66 -41 -66 -70 0 -10 10 -30
22 -45 20 -25 25 -27 80 -23 79 6 132 44 173 123 30 58 30 60 33 245 4 213 -6
277 -61 369 -57 96 -140 149 -342 215 -236 79 -670 146 -936 146 l-70 0 -317
202 c-361 231 -466 287 -607 325 l-100 27 -525 3 c-485 2 -532 1 -615 -17z
m1185 -150 c47 -12 121 -39 165 -59 73 -34 480 -285 515 -317 12 -12 -67 -14
-540 -12 l-555 3 -3 209 -2 209 167 -6 c126 -4 189 -11 253 -27z m-1437 -206
c-14 -65 -28 -121 -30 -123 -2 -3 -37 29 -78 69 l-75 75 102 51 c57 29 104 51
106 49 1 -1 -10 -56 -25 -121z m-140 -750 c69 -23 148 -99 181 -175 25 -54 28
-71 24 -142 -5 -133 -70 -231 -188 -286 -80 -37 -192 -36 -271 2 -189 91 -247
334 -119 496 90 114 230 154 373 105z m3156 -17 c243 -122 238 -465 -8 -584
-79 -38 -191 -39 -271 -2 -117 55 -183 154 -188 286 -4 72 -1 89 23 140 81
179 272 248 444 160z"/>
<path d="M988 562 c-87 -87 -99 -122 -56 -162 39 -36 73 -27 145 43 36 34 71
74 79 89 18 34 9 73 -19 93 -42 29 -67 19 -149 -63z"/>
<path d="M4063 625 c-28 -20 -37 -59 -19 -93 8 -15 43 -55 79 -89 72 -70 106
-79 145 -43 43 40 31 75 -56 162 -82 82 -107 92 -149 63z"/>
<path d="M1712 724 c-16 -11 -22 -25 -22 -53 0 -76 -68 -71 912 -71 835 0 876
1 891 18 10 10 17 35 17 55 0 71 56 67 -910 67 -767 0 -868 -2 -888 -16z"/>
</g>
</svg>
