<?xml version="1.0" standalone="no"?>
<!DOCTYPE svg PUBLIC "-//W3C//DTD SVG 20010904//EN"
 "http://www.w3.org/TR/2001/REC-SVG-20010904/DTD/svg10.dtd">
<svg version="1.0" xmlns="http://www.w3.org/2000/svg"
 width="512.000000pt" height="286.000000pt" viewBox="0 0 512.000000 286.000000"
 preserveAspectRatio="xMidYMid meet">

<g transform="translate(0.000000,286.000000) scale(0.100000,-0.100000)"
fill="#000000" stroke="none">
<path d="M965 2776 c-38 -17 -70 -48 -92 -89 -14 -25 -18 -63 -21 -169 l-4
-138 -169 0 c-156 0 -171 -2 -189 -20 -31 -31 -30 -85 2 -112 18 -16 52 -18
379 -18 346 0 360 1 379 20 30 30 27 83 -6 109 -23 18 -41 21 -130 21 l-104 0
0 119 c0 88 4 121 14 130 10 8 330 11 1222 9 1057 -3 1212 -5 1236 -18 49 -27
1402 -1208 1425 -1243 50 -79 53 -105 53 -456 0 -291 -2 -330 -16 -335 -9 -3
-82 -6 -162 -6 l-147 0 -19 65 c-38 132 -152 255 -283 305 -70 27 -198 37
-272 21 -166 -35 -314 -177 -356 -340 l-11 -46 -638 0 -638 0 -23 68 c-73 215
-253 337 -481 325 -80 -4 -103 -10 -169 -41 -127 -61 -213 -160 -256 -297
l-17 -55 -217 -3 c-152 -2 -222 1 -231 9 -11 9 -14 51 -14 195 l0 184 140 0
c82 0 149 5 164 11 55 26 55 112 0 138 -35 16 -1043 16 -1078 0 -55 -26 -55
-112 0 -138 17 -7 122 -11 319 -11 l294 0 3 -202 c3 -194 4 -205 28 -246 47
-83 60 -86 343 -92 l248 -5 22 -65 c96 -287 417 -414 681 -272 107 57 211 194
231 305 l7 37 641 -2 641 -3 11 -45 c52 -200 247 -350 455 -350 131 0 243 46
337 138 56 55 117 163 129 229 l6 33 175 0 c201 0 232 9 280 82 l28 41 3 334
c2 202 -1 355 -7 389 -12 64 -49 150 -89 208 -35 51 -1409 1243 -1470 1276
l-47 25 -1255 2 c-1037 2 -1260 0 -1285 -11z m1104 -1977 c65 -28 109 -65 142
-118 79 -124 64 -293 -35 -395 -156 -160 -416 -123 -515 75 -63 126 -46 258
48 363 87 96 239 129 360 75z m2228 -4 c180 -82 241 -318 124 -477 -142 -193
-443 -166 -548 50 -36 75 -39 192 -6 263 76 167 265 240 430 164z"/>
<path d="M1891 623 c-94 -49 -103 -172 -16 -229 31 -20 106 -20 138 1 78 50
80 171 4 219 -38 25 -89 28 -126 9z"/>
<path d="M4114 626 c-94 -42 -107 -167 -23 -228 53 -40 154 -17 184 42 30 58
8 152 -42 178 -34 19 -87 22 -119 8z"/>
<path d="M1430 2527 c-43 -22 -51 -51 -48 -185 3 -122 3 -124 31 -148 36 -31
71 -31 102 1 22 22 25 32 25 105 l0 80 184 0 c170 0 185 1 210 21 34 27 37 86
5 115 -19 17 -41 19 -253 22 -173 2 -237 -1 -256 -11z"/>
<path d="M2091 2529 c-55 -22 -68 -83 -26 -124 l24 -25 284 0 c272 0 285 1
311 21 34 27 37 86 5 115 -20 18 -41 19 -298 21 -164 1 -286 -2 -300 -8z"/>
<path d="M3146 2499 l-26 -20 0 -504 c0 -480 1 -504 19 -526 l19 -24 655 -3
655 -2 28 23 c31 27 37 74 13 103 -14 17 -1021 893 -1087 947 -33 26 -40 27
-142 27 -93 0 -111 -3 -134 -21z m620 -510 c236 -204 438 -380 449 -390 19
-19 11 -19 -463 -19 l-482 0 0 390 0 390 34 0 c29 0 81 -42 462 -371z"/>
<path d="M874 2099 c-17 -19 -19 -42 -22 -285 l-3 -264 -83 0 c-128 0 -166
-20 -166 -89 0 -20 8 -36 26 -50 23 -18 41 -21 124 -21 l98 0 4 -64 c5 -80 24
-106 79 -106 55 0 79 34 79 111 l0 59 119 0 c66 0 127 3 136 6 23 9 46 60 39
88 -12 48 -31 55 -164 58 l-125 3 -5 266 c-5 244 -7 269 -24 288 -26 29 -86
29 -112 0z"/>
<path d="M23 1934 c-20 -20 -24 -31 -19 -57 13 -67 12 -67 375 -67 l328 0 21
23 c28 30 29 80 2 107 -19 19 -33 20 -350 20 l-331 0 -26 -26z"/>
<path d="M2779 1717 c-25 -19 -39 -52 -39 -91 l0 -36 -184 0 c-161 0 -186 -2
-204 -17 -32 -28 -33 -82 -2 -113 19 -19 33 -20 260 -20 l241 0 24 25 c23 22
25 32 25 120 0 88 -2 98 -25 120 -26 27 -70 32 -96 12z"/>
<path d="M1930 1570 c-12 -12 -20 -33 -20 -55 0 -64 23 -75 155 -75 110 0 117
1 140 25 30 30 32 64 4 99 -20 25 -23 26 -140 26 -106 0 -121 -2 -139 -20z"/>
</g>
</svg>
